<?xml version="1.0" encoding="UTF-8"?>
<svg xmlns="http://www.w3.org/2000/svg" xmlns:xlink="http://www.w3.org/1999/xlink" width="24px" height="24px" viewBox="0 0 24 24" version="1.1">
<g id="surface1">
<path style=" stroke:none;fill-rule:nonzero;fill:rgb(0%,0%,0%);fill-opacity:1;" d="M 15.007812 18.824219 C 14.855469 18.761719 14.902344 18.613281 14.902344 18.5 C 14.902344 16.894531 14.902344 15.289062 14.902344 13.679688 C 14.902344 13.5625 14.925781 13.429688 14.828125 13.304688 C 14.574219 13.523438 14.34375 13.773438 14.128906 14.042969 C 14.0625 14.121094 14.089844 14.246094 14.089844 14.351562 C 14.089844 15.726562 14.089844 17.101562 14.085938 18.476562 C 14.085938 18.835938 14.0625 18.867188 13.789062 18.839844 C 13.414062 18.800781 13.042969 18.847656 12.667969 18.851562 C 12.472656 18.855469 12.398438 18.761719 12.402344 18.503906 C 12.414062 17.835938 12.40625 17.164062 12.40625 16.496094 C 12.40625 16.390625 12.425781 16.28125 12.359375 16.167969 C 12.21875 16.179688 12.152344 16.34375 12.042969 16.421875 C 11.644531 16.710938 11.539062 17.148438 11.589844 17.703125 C 11.617188 18.003906 11.589844 18.308594 11.59375 18.613281 C 11.597656 18.789062 11.539062 18.839844 11.40625 18.839844 C 10.144531 18.839844 8.878906 18.847656 7.617188 18.851562 C 7.464844 18.851562 7.316406 18.847656 7.109375 18.78125 C 9.675781 16.21875 12.207031 13.691406 14.738281 11.167969 C 14.726562 11.128906 14.714844 11.09375 14.703125 11.058594 C 14.429688 11.0625 14.144531 10.910156 13.882812 11.160156 C 13.460938 11.570312 13.050781 11.992188 12.632812 12.410156 C 12.582031 12.464844 12.535156 12.539062 12.4375 12.523438 C 12.375 12.269531 12.414062 12 12.410156 11.742188 C 12.394531 10.988281 12.480469 11.03125 11.855469 11.03125 C 9.996094 11.03125 8.136719 11.035156 6.273438 11.035156 C 6.179688 11.035156 6.082031 11.050781 5.996094 10.984375 C 6.007812 10.863281 6.082031 10.835938 6.136719 10.789062 C 7.421875 9.644531 8.742188 8.5625 9.976562 7.335938 C 10.765625 6.554688 11.589844 5.839844 12.390625 5.082031 C 12.707031 4.789062 13.03125 4.515625 13.351562 4.230469 C 13.417969 4.167969 13.496094 4.121094 13.546875 4.007812 C 13.445312 3.785156 13.226562 3.691406 13.113281 3.421875 C 13.957031 3.367188 14.777344 3.414062 15.589844 3.386719 C 15.613281 3.53125 15.542969 3.5625 15.496094 3.605469 C 14.195312 4.804688 12.859375 5.957031 11.601562 7.230469 C 11.0625 7.773438 10.511719 8.304688 9.972656 8.855469 C 9.769531 9.0625 9.53125 9.21875 9.355469 9.511719 C 9.84375 9.589844 10.328125 9.566406 10.8125 9.570312 C 11.296875 9.578125 11.785156 9.574219 12.269531 9.574219 C 12.761719 9.574219 13.257812 9.574219 13.75 9.574219 C 14.242188 9.574219 14.734375 9.570312 15.226562 9.570312 C 15.714844 9.570312 16.199219 9.570312 16.6875 9.574219 C 17.179688 9.574219 17.667969 9.574219 18.15625 9.574219 C 18.1875 9.71875 18.105469 9.753906 18.058594 9.804688 C 17.691406 10.199219 17.324219 10.597656 16.949219 10.980469 C 16.800781 11.132812 16.742188 11.304688 16.742188 11.550781 C 16.75 12.925781 16.757812 14.300781 16.742188 15.675781 C 16.730469 16.660156 16.722656 17.640625 16.738281 18.621094 C 16.742188 18.796875 16.683594 18.832031 16.566406 18.828125 C 16.050781 18.824219 15.539062 18.828125 15.007812 18.824219 Z M 15.007812 18.824219 "/>
<path style=" stroke:none;fill-rule:nonzero;fill:rgb(0%,0%,0%);fill-opacity:1;" d="M 8.933594 13.179688 C 8.933594 14.078125 8.929688 14.953125 8.933594 15.828125 C 8.933594 15.964844 8.925781 16.085938 8.828125 16.183594 C 8.296875 16.699219 7.769531 17.226562 7.242188 17.746094 C 7.21875 17.769531 7.183594 17.78125 7.15625 17.796875 C 7.089844 17.726562 7.109375 17.640625 7.109375 17.5625 C 7.109375 15.769531 7.113281 13.976562 7.105469 12.183594 C 7.101562 11.910156 7.171875 11.828125 7.378906 11.835938 C 7.8125 11.851562 8.25 11.847656 8.6875 11.832031 C 8.882812 11.828125 8.945312 11.917969 8.9375 12.160156 C 8.921875 12.492188 8.933594 12.820312 8.933594 13.179688 Z M 8.933594 13.179688 "/>
<path style=" stroke:none;fill-rule:nonzero;fill:rgb(0%,0%,0%);fill-opacity:1;" d="M 15.863281 4.484375 C 16.140625 4.234375 16.40625 3.992188 16.691406 3.734375 C 16.746094 3.988281 16.746094 4.207031 16.746094 4.425781 C 16.746094 5.796875 16.746094 7.167969 16.746094 8.542969 C 16.746094 8.941406 16.742188 8.945312 16.4375 8.945312 C 16 8.949219 15.5625 8.941406 15.125 8.949219 C 14.953125 8.953125 14.894531 8.871094 14.898438 8.652344 C 14.90625 7.644531 14.902344 6.636719 14.898438 5.628906 C 14.898438 5.449219 14.941406 5.328125 15.058594 5.226562 C 15.328125 4.992188 15.585938 4.742188 15.863281 4.484375 Z M 15.863281 4.484375 "/>
<path style=" stroke:none;fill-rule:nonzero;fill:rgb(0%,0%,0%);fill-opacity:1;" d="M 11.300781 13.726562 C 10.796875 14.226562 10.308594 14.71875 9.78125 15.246094 C 9.769531 15.011719 9.757812 14.839844 9.757812 14.667969 C 9.753906 13.839844 9.757812 13.007812 9.75 12.179688 C 9.746094 11.929688 9.808594 11.828125 10.011719 11.832031 C 10.460938 11.847656 10.914062 11.84375 11.363281 11.835938 C 11.527344 11.835938 11.605469 11.90625 11.597656 12.132812 C 11.585938 12.398438 11.578125 12.667969 11.597656 12.933594 C 11.621094 13.277344 11.5625 13.546875 11.300781 13.726562 Z M 11.300781 13.726562 "/>
<path style=" stroke:none;fill-rule:nonzero;fill:rgb(0%,0%,0%);fill-opacity:1;" d="M 13.082031 8.949219 C 12.855469 8.949219 12.648438 8.945312 12.4375 8.945312 C 12.304688 8.949219 12.226562 8.882812 12.242188 8.695312 C 12.242188 8.683594 12.242188 8.675781 12.242188 8.667969 C 12.21875 7.824219 12.21875 7.824219 12.757812 7.335938 C 13.109375 7.015625 13.460938 6.699219 13.8125 6.382812 C 13.878906 6.324219 13.941406 6.242188 14.03125 6.246094 C 14.101562 6.308594 14.085938 6.40625 14.085938 6.492188 C 14.089844 7.203125 14.082031 7.914062 14.089844 8.628906 C 14.09375 8.882812 14.011719 8.957031 13.832031 8.949219 C 13.589844 8.941406 13.347656 8.949219 13.082031 8.949219 Z M 13.082031 8.949219 "/>
</g>
</svg>
